<mxfile host="app.diagrams.net" modified="2023-09-29T21:50:54.962Z" agent="Mozilla/5.0 (Windows NT 10.0; Win64; x64) AppleWebKit/537.36 (KHTML, like Gecko) Chrome/116.0.0.0 Safari/537.36" etag="sX9574Eq1Gc6NKPPxsRa" version="22.0.0" type="google">
  <diagram id="R2lEEEUBdFMjLlhIrx00" name="Page-1">
    <mxGraphModel grid="1" page="1" gridSize="10" guides="1" tooltips="1" connect="1" arrows="1" fold="1" pageScale="1" pageWidth="850" pageHeight="1100" math="0" shadow="0" extFonts="Permanent Marker^https://fonts.googleapis.com/css?family=Permanent+Marker">
      <root>
        <mxCell id="0" />
        <mxCell id="1" parent="0" />
        <mxCell id="C-vyLk0tnHw3VtMMgP7b-23" value="rawMaterials" style="shape=table;startSize=30;container=1;collapsible=1;childLayout=tableLayout;fixedRows=1;rowLines=1;fontStyle=1;align=center;resizeLast=1;" vertex="1" parent="1">
          <mxGeometry x="80" y="-330" width="310" height="310" as="geometry">
            <mxRectangle x="120" y="120" width="100" height="30" as="alternateBounds" />
          </mxGeometry>
        </mxCell>
        <mxCell id="C-vyLk0tnHw3VtMMgP7b-24" value="" style="shape=partialRectangle;collapsible=0;dropTarget=0;pointerEvents=0;fillColor=none;points=[[0,0.5],[1,0.5]];portConstraint=eastwest;top=0;left=0;right=0;bottom=1;" vertex="1" parent="C-vyLk0tnHw3VtMMgP7b-23">
          <mxGeometry y="30" width="310" height="30" as="geometry" />
        </mxCell>
        <mxCell id="C-vyLk0tnHw3VtMMgP7b-25" value="PK" style="shape=partialRectangle;overflow=hidden;connectable=0;fillColor=none;top=0;left=0;bottom=0;right=0;fontStyle=1;" vertex="1" parent="C-vyLk0tnHw3VtMMgP7b-24">
          <mxGeometry width="30" height="30" as="geometry">
            <mxRectangle width="30" height="30" as="alternateBounds" />
          </mxGeometry>
        </mxCell>
        <mxCell id="C-vyLk0tnHw3VtMMgP7b-26" value="materials_id (auto generate, NOT NULL)" style="shape=partialRectangle;overflow=hidden;connectable=0;fillColor=none;top=0;left=0;bottom=0;right=0;align=left;spacingLeft=6;fontStyle=5;" vertex="1" parent="C-vyLk0tnHw3VtMMgP7b-24">
          <mxGeometry x="30" width="280" height="30" as="geometry">
            <mxRectangle width="280" height="30" as="alternateBounds" />
          </mxGeometry>
        </mxCell>
        <mxCell id="C-vyLk0tnHw3VtMMgP7b-27" value="" style="shape=partialRectangle;collapsible=0;dropTarget=0;pointerEvents=0;fillColor=none;points=[[0,0.5],[1,0.5]];portConstraint=eastwest;top=0;left=0;right=0;bottom=0;" vertex="1" parent="C-vyLk0tnHw3VtMMgP7b-23">
          <mxGeometry y="60" width="310" height="30" as="geometry" />
        </mxCell>
        <mxCell id="C-vyLk0tnHw3VtMMgP7b-28" value="" style="shape=partialRectangle;overflow=hidden;connectable=0;fillColor=none;top=0;left=0;bottom=0;right=0;" vertex="1" parent="C-vyLk0tnHw3VtMMgP7b-27">
          <mxGeometry width="30" height="30" as="geometry">
            <mxRectangle width="30" height="30" as="alternateBounds" />
          </mxGeometry>
        </mxCell>
        <mxCell id="C-vyLk0tnHw3VtMMgP7b-29" value="Group: (&quot;Oligo&quot;, &quot;Chemical&quot;)" style="shape=partialRectangle;overflow=hidden;connectable=0;fillColor=none;top=0;left=0;bottom=0;right=0;align=left;spacingLeft=6;" vertex="1" parent="C-vyLk0tnHw3VtMMgP7b-27">
          <mxGeometry x="30" width="280" height="30" as="geometry">
            <mxRectangle width="280" height="30" as="alternateBounds" />
          </mxGeometry>
        </mxCell>
        <mxCell id="ttFAf1TuESWGWRTDPNka-17" value="" style="shape=tableRow;horizontal=0;startSize=0;swimlaneHead=0;swimlaneBody=0;fillColor=none;collapsible=0;dropTarget=0;points=[[0,0.5],[1,0.5]];portConstraint=eastwest;top=0;left=0;right=0;bottom=0;" vertex="1" parent="1">
          <mxGeometry x="560" y="270" width="270" height="30" as="geometry" />
        </mxCell>
        <mxCell id="ttFAf1TuESWGWRTDPNka-26" value="" style="shape=partialRectangle;collapsible=0;dropTarget=0;pointerEvents=0;fillColor=none;points=[[0,0.5],[1,0.5]];portConstraint=eastwest;top=0;left=1;right=0;bottom=0;" vertex="1" parent="1">
          <mxGeometry x="80" y="-150" width="250" height="30" as="geometry" />
        </mxCell>
        <mxCell id="ttFAf1TuESWGWRTDPNka-27" value="" style="shape=partialRectangle;overflow=hidden;connectable=0;fillColor=none;top=0;left=0;bottom=0;right=0;" vertex="1" parent="ttFAf1TuESWGWRTDPNka-26">
          <mxGeometry width="30" height="30" as="geometry">
            <mxRectangle width="30" height="100" as="alternateBounds" />
          </mxGeometry>
        </mxCell>
        <mxCell id="ttFAf1TuESWGWRTDPNka-28" value="Concentration: double NOT NULL" style="shape=partialRectangle;overflow=hidden;connectable=0;fillColor=none;top=0;left=1;bottom=0;right=0;align=left;spacingLeft=6;" vertex="1" parent="ttFAf1TuESWGWRTDPNka-26">
          <mxGeometry x="30" width="220" height="30" as="geometry">
            <mxRectangle width="220" height="100" as="alternateBounds" />
          </mxGeometry>
        </mxCell>
        <mxCell id="ttFAf1TuESWGWRTDPNka-29" value="" style="shape=partialRectangle;collapsible=0;dropTarget=0;pointerEvents=0;fillColor=none;points=[[0,0.5],[1,0.5]];portConstraint=eastwest;top=0;left=1;right=0;bottom=0;" vertex="1" parent="1">
          <mxGeometry x="80" y="-170" width="250" height="70" as="geometry" />
        </mxCell>
        <mxCell id="ttFAf1TuESWGWRTDPNka-30" value="" style="shape=partialRectangle;overflow=hidden;connectable=0;fillColor=none;top=0;left=0;bottom=0;right=0;" vertex="1" parent="ttFAf1TuESWGWRTDPNka-29">
          <mxGeometry width="30" height="70" as="geometry">
            <mxRectangle width="30" height="100" as="alternateBounds" />
          </mxGeometry>
        </mxCell>
        <mxCell id="ttFAf1TuESWGWRTDPNka-32" value="amount in stock: int NOT NULL" style="shape=partialRectangle;overflow=hidden;connectable=0;fillColor=none;top=0;left=1;bottom=0;right=0;align=left;spacingLeft=6;" vertex="1" parent="1">
          <mxGeometry x="110" y="-60" width="220" height="40" as="geometry">
            <mxRectangle width="220" height="100" as="alternateBounds" />
          </mxGeometry>
        </mxCell>
        <mxCell id="ttFAf1TuESWGWRTDPNka-31" value="Threshold: int NOT NULL" style="shape=partialRectangle;overflow=hidden;connectable=0;fillColor=none;top=0;left=1;bottom=0;right=0;align=left;spacingLeft=6;" vertex="1" parent="1">
          <mxGeometry x="110" y="-90" width="220" height="30" as="geometry">
            <mxRectangle width="220" height="100" as="alternateBounds" />
          </mxGeometry>
        </mxCell>
        <mxCell id="ttFAf1TuESWGWRTDPNka-47" value="" style="shape=partialRectangle;collapsible=0;dropTarget=0;pointerEvents=0;fillColor=none;points=[[0,0.5],[1,0.5]];portConstraint=eastwest;top=0;left=1;right=0;bottom=0;" vertex="1" parent="1">
          <mxGeometry x="80" y="-120" width="250" height="30" as="geometry" />
        </mxCell>
        <mxCell id="ttFAf1TuESWGWRTDPNka-48" value="" style="shape=partialRectangle;overflow=hidden;connectable=0;fillColor=none;top=0;left=0;bottom=0;right=0;" vertex="1" parent="ttFAf1TuESWGWRTDPNka-47">
          <mxGeometry width="30" height="30" as="geometry">
            <mxRectangle width="30" height="100" as="alternateBounds" />
          </mxGeometry>
        </mxCell>
        <mxCell id="ttFAf1TuESWGWRTDPNka-49" value="receiveDate: DTÂ " style="shape=partialRectangle;overflow=hidden;connectable=0;fillColor=none;top=0;left=1;bottom=0;right=0;align=left;spacingLeft=6;" vertex="1" parent="ttFAf1TuESWGWRTDPNka-47">
          <mxGeometry x="30" width="220" height="30" as="geometry">
            <mxRectangle width="220" height="100" as="alternateBounds" />
          </mxGeometry>
        </mxCell>
        <mxCell id="ttFAf1TuESWGWRTDPNka-78" value="Components" style="shape=table;startSize=30;container=1;collapsible=1;childLayout=tableLayout;fixedRows=1;rowLines=0;fontStyle=1;align=center;resizeLast=1;html=1;" vertex="1" parent="1">
          <mxGeometry x="338.25" y="-750" width="287" height="250" as="geometry" />
        </mxCell>
        <mxCell id="ttFAf1TuESWGWRTDPNka-79" value="" style="shape=tableRow;horizontal=0;startSize=0;swimlaneHead=0;swimlaneBody=0;fillColor=none;collapsible=0;dropTarget=0;points=[[0,0.5],[1,0.5]];portConstraint=eastwest;top=0;left=0;right=0;bottom=1;" vertex="1" parent="ttFAf1TuESWGWRTDPNka-78">
          <mxGeometry y="30" width="287" height="30" as="geometry" />
        </mxCell>
        <mxCell id="ttFAf1TuESWGWRTDPNka-80" value="PK" style="shape=partialRectangle;connectable=0;fillColor=none;top=0;left=0;bottom=0;right=0;fontStyle=1;overflow=hidden;whiteSpace=wrap;html=1;" vertex="1" parent="ttFAf1TuESWGWRTDPNka-79">
          <mxGeometry width="30" height="30" as="geometry">
            <mxRectangle width="30" height="30" as="alternateBounds" />
          </mxGeometry>
        </mxCell>
        <mxCell id="ttFAf1TuESWGWRTDPNka-81" value="component_id (auto generated) NOT NULL" style="shape=partialRectangle;connectable=0;fillColor=none;top=0;left=0;bottom=0;right=0;align=left;spacingLeft=6;fontStyle=5;overflow=hidden;whiteSpace=wrap;html=1;" vertex="1" parent="ttFAf1TuESWGWRTDPNka-79">
          <mxGeometry x="30" width="257" height="30" as="geometry">
            <mxRectangle width="257" height="30" as="alternateBounds" />
          </mxGeometry>
        </mxCell>
        <mxCell id="ttFAf1TuESWGWRTDPNka-82" value="" style="shape=tableRow;horizontal=0;startSize=0;swimlaneHead=0;swimlaneBody=0;fillColor=none;collapsible=0;dropTarget=0;points=[[0,0.5],[1,0.5]];portConstraint=eastwest;top=0;left=0;right=0;bottom=0;" vertex="1" parent="ttFAf1TuESWGWRTDPNka-78">
          <mxGeometry y="60" width="287" height="30" as="geometry" />
        </mxCell>
        <mxCell id="ttFAf1TuESWGWRTDPNka-83" value="" style="shape=partialRectangle;connectable=0;fillColor=none;top=0;left=0;bottom=0;right=0;editable=1;overflow=hidden;whiteSpace=wrap;html=1;" vertex="1" parent="ttFAf1TuESWGWRTDPNka-82">
          <mxGeometry width="30" height="30" as="geometry">
            <mxRectangle width="30" height="30" as="alternateBounds" />
          </mxGeometry>
        </mxCell>
        <mxCell id="ttFAf1TuESWGWRTDPNka-84" value="componentName: char(255), NOT NULL" style="shape=partialRectangle;connectable=0;fillColor=none;top=0;left=0;bottom=0;right=0;align=left;spacingLeft=6;overflow=hidden;whiteSpace=wrap;html=1;" vertex="1" parent="ttFAf1TuESWGWRTDPNka-82">
          <mxGeometry x="30" width="257" height="30" as="geometry">
            <mxRectangle width="257" height="30" as="alternateBounds" />
          </mxGeometry>
        </mxCell>
        <mxCell id="ttFAf1TuESWGWRTDPNka-85" value="" style="shape=tableRow;horizontal=0;startSize=0;swimlaneHead=0;swimlaneBody=0;fillColor=none;collapsible=0;dropTarget=0;points=[[0,0.5],[1,0.5]];portConstraint=eastwest;top=0;left=0;right=0;bottom=0;" vertex="1" parent="ttFAf1TuESWGWRTDPNka-78">
          <mxGeometry y="90" width="287" height="30" as="geometry" />
        </mxCell>
        <mxCell id="ttFAf1TuESWGWRTDPNka-86" value="" style="shape=partialRectangle;connectable=0;fillColor=none;top=0;left=0;bottom=0;right=0;editable=1;overflow=hidden;whiteSpace=wrap;html=1;" vertex="1" parent="ttFAf1TuESWGWRTDPNka-85">
          <mxGeometry width="30" height="30" as="geometry">
            <mxRectangle width="30" height="30" as="alternateBounds" />
          </mxGeometry>
        </mxCell>
        <mxCell id="ttFAf1TuESWGWRTDPNka-87" value="manufactureDate: DT, NOT NULL" style="shape=partialRectangle;connectable=0;fillColor=none;top=0;left=0;bottom=0;right=0;align=left;spacingLeft=6;overflow=hidden;whiteSpace=wrap;html=1;" vertex="1" parent="ttFAf1TuESWGWRTDPNka-85">
          <mxGeometry x="30" width="257" height="30" as="geometry">
            <mxRectangle width="257" height="30" as="alternateBounds" />
          </mxGeometry>
        </mxCell>
        <mxCell id="ttFAf1TuESWGWRTDPNka-91" value="assembly_by" style="shape=rhombus;perimeter=rhombusPerimeter;whiteSpace=wrap;html=1;align=center;" vertex="1" parent="1">
          <mxGeometry x="417" y="-860" width="120" height="60" as="geometry" />
        </mxCell>
        <mxCell id="ttFAf1TuESWGWRTDPNka-92" value="" style="endArrow=none;html=1;rounded=0;exitX=0.5;exitY=0;exitDx=0;exitDy=0;" edge="1" parent="1" source="ttFAf1TuESWGWRTDPNka-91">
          <mxGeometry relative="1" as="geometry">
            <mxPoint x="387" y="-860" as="sourcePoint" />
            <mxPoint x="477" y="-900" as="targetPoint" />
          </mxGeometry>
        </mxCell>
        <mxCell id="ttFAf1TuESWGWRTDPNka-93" value="&lt;font style=&quot;font-size: 14px;&quot;&gt;1&lt;/font&gt;" style="resizable=0;html=1;whiteSpace=wrap;align=right;verticalAlign=bottom;" connectable="0" vertex="1" parent="ttFAf1TuESWGWRTDPNka-92">
          <mxGeometry x="1" relative="1" as="geometry">
            <mxPoint x="20" y="30" as="offset" />
          </mxGeometry>
        </mxCell>
        <mxCell id="ttFAf1TuESWGWRTDPNka-94" value="" style="endArrow=none;html=1;rounded=0;exitX=0.5;exitY=1;exitDx=0;exitDy=0;" edge="1" parent="1" source="ttFAf1TuESWGWRTDPNka-91">
          <mxGeometry relative="1" as="geometry">
            <mxPoint x="387" y="-720" as="sourcePoint" />
            <mxPoint x="478" y="-750" as="targetPoint" />
          </mxGeometry>
        </mxCell>
        <mxCell id="ttFAf1TuESWGWRTDPNka-95" value="&lt;font style=&quot;font-size: 14px;&quot;&gt;N&lt;/font&gt;" style="resizable=0;html=1;whiteSpace=wrap;align=right;verticalAlign=bottom;" connectable="0" vertex="1" parent="ttFAf1TuESWGWRTDPNka-94">
          <mxGeometry x="1" relative="1" as="geometry">
            <mxPoint x="20" y="-13" as="offset" />
          </mxGeometry>
        </mxCell>
        <mxCell id="ttFAf1TuESWGWRTDPNka-97" value="" style="fontSize=12;html=1;endArrow=ERzeroToMany;endFill=1;rounded=0;entryX=0;entryY=0.5;entryDx=0;entryDy=0;edgeStyle=orthogonalEdgeStyle;" edge="1" parent="1" target="ttFAf1TuESWGWRTDPNka-79">
          <mxGeometry width="100" height="100" relative="1" as="geometry">
            <mxPoint x="273.5" y="-920" as="sourcePoint" />
            <mxPoint x="271.18" y="-505" as="targetPoint" />
          </mxGeometry>
        </mxCell>
        <mxCell id="ttFAf1TuESWGWRTDPNka-100" value="" style="endArrow=none;html=1;rounded=0;" edge="1" parent="1">
          <mxGeometry relative="1" as="geometry">
            <mxPoint x="273.5" y="-920" as="sourcePoint" />
            <mxPoint x="313.5" y="-920" as="targetPoint" />
          </mxGeometry>
        </mxCell>
        <mxCell id="ttFAf1TuESWGWRTDPNka-195" value="amount: int, NOT NULL" style="shape=partialRectangle;connectable=0;fillColor=none;top=0;left=1;bottom=0;right=0;align=left;spacingLeft=6;overflow=hidden;whiteSpace=wrap;html=1;" vertex="1" parent="1">
          <mxGeometry x="368.25" y="-590" width="257" height="30" as="geometry">
            <mxRectangle width="257" height="30" as="alternateBounds" />
          </mxGeometry>
        </mxCell>
        <mxCell id="ttFAf1TuESWGWRTDPNka-276" value="" style="group" connectable="0" vertex="1" parent="1">
          <mxGeometry x="313.5" y="-1090" width="330" height="190" as="geometry" />
        </mxCell>
        <mxCell id="ttFAf1TuESWGWRTDPNka-55" value="Products" style="shape=table;startSize=30;container=1;collapsible=1;childLayout=tableLayout;fixedRows=1;rowLines=0;fontStyle=1;align=center;resizeLast=1;html=1;whiteSpace=wrap;" vertex="1" parent="ttFAf1TuESWGWRTDPNka-276">
          <mxGeometry width="330" height="190" as="geometry" />
        </mxCell>
        <mxCell id="ttFAf1TuESWGWRTDPNka-56" value="" style="shape=tableRow;horizontal=0;startSize=0;swimlaneHead=0;swimlaneBody=0;fillColor=none;collapsible=0;dropTarget=0;points=[[0,0.5],[1,0.5]];portConstraint=eastwest;top=0;left=0;right=0;bottom=0;html=1;" vertex="1" parent="ttFAf1TuESWGWRTDPNka-55">
          <mxGeometry y="30" width="330" height="30" as="geometry" />
        </mxCell>
        <mxCell id="ttFAf1TuESWGWRTDPNka-57" value="PK" style="shape=partialRectangle;connectable=0;fillColor=none;top=0;left=0;bottom=1;right=0;fontStyle=1;overflow=hidden;html=1;whiteSpace=wrap;" vertex="1" parent="ttFAf1TuESWGWRTDPNka-56">
          <mxGeometry width="60" height="30" as="geometry">
            <mxRectangle width="60" height="30" as="alternateBounds" />
          </mxGeometry>
        </mxCell>
        <mxCell id="ttFAf1TuESWGWRTDPNka-58" value="product_id: char(255), NOT NULL" style="shape=partialRectangle;connectable=0;fillColor=none;top=0;left=0;bottom=1;right=0;align=left;spacingLeft=6;fontStyle=5;overflow=hidden;html=1;whiteSpace=wrap;" vertex="1" parent="ttFAf1TuESWGWRTDPNka-56">
          <mxGeometry x="60" width="270" height="30" as="geometry">
            <mxRectangle width="270" height="30" as="alternateBounds" />
          </mxGeometry>
        </mxCell>
        <mxCell id="ttFAf1TuESWGWRTDPNka-62" value="" style="shape=tableRow;horizontal=0;startSize=0;swimlaneHead=0;swimlaneBody=0;fillColor=none;collapsible=0;dropTarget=0;points=[[0,0.5],[1,0.5]];portConstraint=eastwest;top=0;left=0;right=0;bottom=0;html=1;" vertex="1" parent="ttFAf1TuESWGWRTDPNka-55">
          <mxGeometry y="60" width="330" height="30" as="geometry" />
        </mxCell>
        <mxCell id="ttFAf1TuESWGWRTDPNka-63" value="" style="shape=partialRectangle;connectable=0;fillColor=none;top=0;left=0;bottom=0;right=0;editable=1;overflow=hidden;html=1;whiteSpace=wrap;" vertex="1" parent="ttFAf1TuESWGWRTDPNka-62">
          <mxGeometry width="60" height="30" as="geometry">
            <mxRectangle width="60" height="30" as="alternateBounds" />
          </mxGeometry>
        </mxCell>
        <mxCell id="ttFAf1TuESWGWRTDPNka-64" value="productName: char(255) NOT NULL" style="shape=partialRectangle;connectable=0;fillColor=none;top=0;left=0;bottom=0;right=0;align=left;spacingLeft=6;overflow=hidden;html=1;whiteSpace=wrap;" vertex="1" parent="ttFAf1TuESWGWRTDPNka-62">
          <mxGeometry x="60" width="270" height="30" as="geometry">
            <mxRectangle width="270" height="30" as="alternateBounds" />
          </mxGeometry>
        </mxCell>
        <mxCell id="ttFAf1TuESWGWRTDPNka-65" value="" style="shape=tableRow;horizontal=0;startSize=0;swimlaneHead=0;swimlaneBody=0;fillColor=none;collapsible=0;dropTarget=0;points=[[0,0.5],[1,0.5]];portConstraint=eastwest;top=0;left=0;right=0;bottom=0;html=1;" vertex="1" parent="ttFAf1TuESWGWRTDPNka-55">
          <mxGeometry y="90" width="330" height="30" as="geometry" />
        </mxCell>
        <mxCell id="ttFAf1TuESWGWRTDPNka-66" value="" style="shape=partialRectangle;connectable=0;fillColor=none;top=0;left=0;bottom=0;right=0;editable=1;overflow=hidden;html=1;whiteSpace=wrap;" vertex="1" parent="ttFAf1TuESWGWRTDPNka-65">
          <mxGeometry width="60" height="30" as="geometry">
            <mxRectangle width="60" height="30" as="alternateBounds" />
          </mxGeometry>
        </mxCell>
        <mxCell id="ttFAf1TuESWGWRTDPNka-67" value="lot#: char(255) NOT NULL" style="shape=partialRectangle;connectable=0;fillColor=none;top=0;left=0;bottom=0;right=0;align=left;spacingLeft=6;overflow=hidden;html=1;whiteSpace=wrap;" vertex="1" parent="ttFAf1TuESWGWRTDPNka-65">
          <mxGeometry x="60" width="270" height="30" as="geometry">
            <mxRectangle width="270" height="30" as="alternateBounds" />
          </mxGeometry>
        </mxCell>
        <mxCell id="ttFAf1TuESWGWRTDPNka-68" value="JSON of Components: &amp;lt;component, lot# &amp;gt;" style="shape=partialRectangle;connectable=0;fillColor=none;top=0;left=1;bottom=0;right=0;align=left;spacingLeft=6;overflow=hidden;html=1;whiteSpace=wrap;" vertex="1" parent="ttFAf1TuESWGWRTDPNka-276">
          <mxGeometry x="60" y="149.23" width="250" height="32.31" as="geometry">
            <mxRectangle width="225" height="30" as="alternateBounds" />
          </mxGeometry>
        </mxCell>
        <mxCell id="ttFAf1TuESWGWRTDPNka-196" value="amount: int NOT NULL" style="shape=partialRectangle;connectable=0;fillColor=none;top=0;left=1;bottom=0;right=0;align=left;spacingLeft=6;overflow=hidden;html=1;whiteSpace=wrap;" vertex="1" parent="ttFAf1TuESWGWRTDPNka-276">
          <mxGeometry x="60" y="119.23000000000002" width="225" height="30" as="geometry">
            <mxRectangle width="225" height="30" as="alternateBounds" />
          </mxGeometry>
        </mxCell>
        <mxCell id="ttFAf1TuESWGWRTDPNka-280" value="List of recipeItems: List NOT NULL" style="shape=partialRectangle;connectable=0;fillColor=none;top=0;left=1;bottom=0;right=0;align=left;spacingLeft=6;overflow=hidden;whiteSpace=wrap;html=1;" vertex="1" parent="1">
          <mxGeometry x="368.25" y="-560" width="257" height="30" as="geometry">
            <mxRectangle width="257" height="30" as="alternateBounds" />
          </mxGeometry>
        </mxCell>
        <mxCell id="ttFAf1TuESWGWRTDPNka-281" value="prerequiste: List" style="shape=partialRectangle;connectable=0;fillColor=none;top=0;left=1;bottom=0;right=0;align=left;spacingLeft=6;overflow=hidden;whiteSpace=wrap;html=1;" vertex="1" parent="1">
          <mxGeometry x="368.25" y="-530" width="257" height="30" as="geometry">
            <mxRectangle width="257" height="30" as="alternateBounds" />
          </mxGeometry>
        </mxCell>
        <mxCell id="ttFAf1TuESWGWRTDPNka-282" value="" style="group" connectable="0" vertex="1" parent="1">
          <mxGeometry x="600" y="-390.15" width="200" height="160" as="geometry" />
        </mxCell>
        <mxCell id="ttFAf1TuESWGWRTDPNka-117" value="RecipeItem" style="shape=table;startSize=30;container=1;collapsible=1;childLayout=tableLayout;fixedRows=1;rowLines=0;fontStyle=1;align=center;resizeLast=1;html=1;" vertex="1" parent="ttFAf1TuESWGWRTDPNka-282">
          <mxGeometry width="200" height="150" as="geometry" />
        </mxCell>
        <mxCell id="ttFAf1TuESWGWRTDPNka-118" value="" style="shape=tableRow;horizontal=0;startSize=0;swimlaneHead=0;swimlaneBody=0;fillColor=none;collapsible=0;dropTarget=0;points=[[0,0.5],[1,0.5]];portConstraint=eastwest;top=0;left=0;right=0;bottom=1;" vertex="1" parent="ttFAf1TuESWGWRTDPNka-117">
          <mxGeometry y="30" width="200" height="30" as="geometry" />
        </mxCell>
        <mxCell id="ttFAf1TuESWGWRTDPNka-119" value="PK" style="shape=partialRectangle;connectable=0;fillColor=none;top=0;left=0;bottom=0;right=0;fontStyle=1;overflow=hidden;whiteSpace=wrap;html=1;" vertex="1" parent="ttFAf1TuESWGWRTDPNka-118">
          <mxGeometry width="50" height="30" as="geometry">
            <mxRectangle width="50" height="30" as="alternateBounds" />
          </mxGeometry>
        </mxCell>
        <mxCell id="ttFAf1TuESWGWRTDPNka-120" value="recipeItem_id" style="shape=partialRectangle;connectable=0;fillColor=none;top=0;left=0;bottom=0;right=0;align=left;spacingLeft=6;fontStyle=5;overflow=hidden;whiteSpace=wrap;html=1;" vertex="1" parent="ttFAf1TuESWGWRTDPNka-118">
          <mxGeometry x="50" width="150" height="30" as="geometry">
            <mxRectangle width="150" height="30" as="alternateBounds" />
          </mxGeometry>
        </mxCell>
        <mxCell id="ttFAf1TuESWGWRTDPNka-124" value="" style="shape=tableRow;horizontal=0;startSize=0;swimlaneHead=0;swimlaneBody=0;fillColor=none;collapsible=0;dropTarget=0;points=[[0,0.5],[1,0.5]];portConstraint=eastwest;top=0;left=0;right=0;bottom=0;" vertex="1" parent="ttFAf1TuESWGWRTDPNka-117">
          <mxGeometry y="60" width="200" height="30" as="geometry" />
        </mxCell>
        <mxCell id="ttFAf1TuESWGWRTDPNka-125" value="" style="shape=partialRectangle;connectable=0;fillColor=none;top=0;left=0;bottom=0;right=0;editable=1;overflow=hidden;whiteSpace=wrap;html=1;" vertex="1" parent="ttFAf1TuESWGWRTDPNka-124">
          <mxGeometry width="50" height="30" as="geometry">
            <mxRectangle width="50" height="30" as="alternateBounds" />
          </mxGeometry>
        </mxCell>
        <mxCell id="ttFAf1TuESWGWRTDPNka-126" value="Name: char(50)" style="shape=partialRectangle;connectable=0;fillColor=none;top=0;left=0;bottom=0;right=0;align=left;spacingLeft=6;overflow=hidden;whiteSpace=wrap;html=1;" vertex="1" parent="ttFAf1TuESWGWRTDPNka-124">
          <mxGeometry x="50" width="150" height="30" as="geometry">
            <mxRectangle width="150" height="30" as="alternateBounds" />
          </mxGeometry>
        </mxCell>
        <mxCell id="ttFAf1TuESWGWRTDPNka-277" value="" style="shape=tableRow;horizontal=0;startSize=0;swimlaneHead=0;swimlaneBody=0;fillColor=none;collapsible=0;dropTarget=0;points=[[0,0.5],[1,0.5]];portConstraint=eastwest;top=0;left=0;right=0;bottom=0;" vertex="1" parent="ttFAf1TuESWGWRTDPNka-282">
          <mxGeometry y="90" width="200" height="30" as="geometry" />
        </mxCell>
        <mxCell id="ttFAf1TuESWGWRTDPNka-278" value="" style="shape=partialRectangle;connectable=0;fillColor=none;top=0;left=0;bottom=0;right=0;editable=1;overflow=hidden;whiteSpace=wrap;html=1;" vertex="1" parent="ttFAf1TuESWGWRTDPNka-277">
          <mxGeometry width="50" height="30" as="geometry">
            <mxRectangle width="50" height="30" as="alternateBounds" />
          </mxGeometry>
        </mxCell>
        <mxCell id="ttFAf1TuESWGWRTDPNka-279" value="amountPerRxn: double" style="shape=partialRectangle;connectable=0;fillColor=none;top=0;left=1;bottom=0;right=0;align=left;spacingLeft=6;overflow=hidden;whiteSpace=wrap;html=1;" vertex="1" parent="ttFAf1TuESWGWRTDPNka-277">
          <mxGeometry x="50" width="150" height="30" as="geometry">
            <mxRectangle width="150" height="30" as="alternateBounds" />
          </mxGeometry>
        </mxCell>
        <mxCell id="ttFAf1TuESWGWRTDPNka-291" value="" style="shape=tableRow;horizontal=0;startSize=0;swimlaneHead=0;swimlaneBody=0;fillColor=none;collapsible=0;dropTarget=0;points=[[0,0.5],[1,0.5]];portConstraint=eastwest;top=0;left=0;right=0;bottom=0;" vertex="1" parent="ttFAf1TuESWGWRTDPNka-282">
          <mxGeometry y="120" width="200" height="30" as="geometry" />
        </mxCell>
        <mxCell id="ttFAf1TuESWGWRTDPNka-292" value="FK" style="shape=partialRectangle;connectable=0;fillColor=none;top=0;left=0;bottom=0;right=0;editable=1;overflow=hidden;whiteSpace=wrap;html=1;" vertex="1" parent="ttFAf1TuESWGWRTDPNka-291">
          <mxGeometry width="50" height="30" as="geometry">
            <mxRectangle width="50" height="30" as="alternateBounds" />
          </mxGeometry>
        </mxCell>
        <mxCell id="ttFAf1TuESWGWRTDPNka-293" value="material_id: char(255)" style="shape=partialRectangle;connectable=0;fillColor=none;top=0;left=1;bottom=0;right=0;align=left;spacingLeft=6;overflow=hidden;whiteSpace=wrap;html=1;" vertex="1" parent="ttFAf1TuESWGWRTDPNka-291">
          <mxGeometry x="50" width="150" height="30" as="geometry">
            <mxRectangle width="150" height="30" as="alternateBounds" />
          </mxGeometry>
        </mxCell>
        <mxCell id="ttFAf1TuESWGWRTDPNka-283" value="made_of" style="shape=rhombus;perimeter=rhombusPerimeter;whiteSpace=wrap;html=1;align=center;" vertex="1" parent="1">
          <mxGeometry x="510" y="-470" width="120" height="60" as="geometry" />
        </mxCell>
        <mxCell id="ttFAf1TuESWGWRTDPNka-284" value="" style="endArrow=none;html=1;rounded=0;entryX=0.5;entryY=0;entryDx=0;entryDy=0;" edge="1" parent="1" target="ttFAf1TuESWGWRTDPNka-283">
          <mxGeometry relative="1" as="geometry">
            <mxPoint x="480" y="-500" as="sourcePoint" />
            <mxPoint x="683.5" y="-580" as="targetPoint" />
          </mxGeometry>
        </mxCell>
        <mxCell id="ttFAf1TuESWGWRTDPNka-285" value="1" style="resizable=0;html=1;whiteSpace=wrap;align=right;verticalAlign=bottom;" connectable="0" vertex="1" parent="ttFAf1TuESWGWRTDPNka-284">
          <mxGeometry x="1" relative="1" as="geometry" />
        </mxCell>
        <mxCell id="ttFAf1TuESWGWRTDPNka-286" value="" style="endArrow=none;html=1;rounded=0;exitX=0.5;exitY=1;exitDx=0;exitDy=0;entryX=0.5;entryY=0;entryDx=0;entryDy=0;" edge="1" parent="1" source="ttFAf1TuESWGWRTDPNka-283" target="ttFAf1TuESWGWRTDPNka-117">
          <mxGeometry relative="1" as="geometry">
            <mxPoint x="523.5" y="-580" as="sourcePoint" />
            <mxPoint x="483.5" y="-310" as="targetPoint" />
          </mxGeometry>
        </mxCell>
        <mxCell id="ttFAf1TuESWGWRTDPNka-287" value="N" style="resizable=0;html=1;whiteSpace=wrap;align=right;verticalAlign=bottom;direction=south;" connectable="0" vertex="1" parent="ttFAf1TuESWGWRTDPNka-286">
          <mxGeometry x="1" relative="1" as="geometry">
            <mxPoint x="-5" y="-20" as="offset" />
          </mxGeometry>
        </mxCell>
        <mxCell id="ttFAf1TuESWGWRTDPNka-288" value="Catalog#:Â  char(50) NOT NULL" style="shape=partialRectangle;overflow=hidden;connectable=0;fillColor=none;top=0;left=1;bottom=0;right=0;align=left;spacingLeft=6;" vertex="1" parent="1">
          <mxGeometry x="110" y="-240" width="280" height="30" as="geometry">
            <mxRectangle width="280" height="30" as="alternateBounds" />
          </mxGeometry>
        </mxCell>
        <mxCell id="ttFAf1TuESWGWRTDPNka-289" value="Description: char(255) NOT NULL" style="shape=partialRectangle;overflow=hidden;connectable=0;fillColor=none;top=0;left=1;bottom=0;right=0;align=left;spacingLeft=6;" vertex="1" parent="1">
          <mxGeometry x="110" y="-207.5" width="280" height="30" as="geometry">
            <mxRectangle width="280" height="30" as="alternateBounds" />
          </mxGeometry>
        </mxCell>
        <mxCell id="ttFAf1TuESWGWRTDPNka-290" value="Manufactuer:Â  char(255)" style="shape=partialRectangle;overflow=hidden;connectable=0;fillColor=none;top=0;left=1;bottom=0;right=0;align=left;spacingLeft=6;" vertex="1" parent="1">
          <mxGeometry x="110" y="-177.5" width="220" height="30" as="geometry">
            <mxRectangle width="220" height="100" as="alternateBounds" />
          </mxGeometry>
        </mxCell>
        <mxCell id="ttFAf1TuESWGWRTDPNka-294" value="" style="fontSize=12;html=1;endArrow=ERzeroToMany;endFill=1;rounded=0;exitX=0;exitY=0.5;exitDx=0;exitDy=0;edgeStyle=elbowEdgeStyle;entryX=1;entryY=0.5;entryDx=0;entryDy=0;" edge="1" parent="1" source="ttFAf1TuESWGWRTDPNka-291" target="C-vyLk0tnHw3VtMMgP7b-24">
          <mxGeometry width="100" height="100" relative="1" as="geometry">
            <mxPoint x="383.5" y="-175" as="sourcePoint" />
            <mxPoint x="323.5" y="-40" as="targetPoint" />
            <Array as="points">
              <mxPoint x="490" y="-270" />
            </Array>
          </mxGeometry>
        </mxCell>
        <mxCell id="ttFAf1TuESWGWRTDPNka-295" value="" style="fontSize=12;html=1;endArrow=ERzeroToMany;endFill=1;rounded=0;exitX=0;exitY=0.5;exitDx=0;exitDy=0;edgeStyle=elbowEdgeStyle;entryX=0;entryY=0.5;entryDx=0;entryDy=0;" edge="1" parent="1" target="ttFAf1TuESWGWRTDPNka-118">
          <mxGeometry width="100" height="100" relative="1" as="geometry">
            <mxPoint x="340" y="-530" as="sourcePoint" />
            <mxPoint x="280" y="-395" as="targetPoint" />
            <Array as="points">
              <mxPoint x="320" y="-450" />
            </Array>
          </mxGeometry>
        </mxCell>
        <mxCell id="ttFAf1TuESWGWRTDPNka-296" value="FK" style="text;html=1;align=center;verticalAlign=middle;resizable=0;points=[];autosize=1;strokeColor=none;fillColor=none;" vertex="1" parent="1">
          <mxGeometry x="331.75" y="-562" width="40" height="30" as="geometry" />
        </mxCell>
        <mxCell id="ttFAf1TuESWGWRTDPNka-297" value="lot#: char(255), NOT NULL" style="shape=partialRectangle;connectable=0;fillColor=none;top=0;left=1;bottom=0;right=0;align=left;spacingLeft=6;overflow=hidden;whiteSpace=wrap;html=1;" vertex="1" parent="1">
          <mxGeometry x="368.25" y="-630" width="257" height="30" as="geometry">
            <mxRectangle width="257" height="30" as="alternateBounds" />
          </mxGeometry>
        </mxCell>
      </root>
    </mxGraphModel>
  </diagram>
</mxfile>
